{"title":"Falco - Naked (Jell)","uid":7407429,"size":107720755,"categoryP":"video","categoryS":"music_videos","magnet":"?xt=urn:btih:d32205dd66310d0ef994efefba566084a9d9f522&amp;dn=Falco+-+Naked+%28Jell%29&amp;tr=udp%3A%2F%2Ftracker.openbittorrent.com%3A80&amp;tr=udp%3A%2F%2Fopen.demonii.com%3A1337&amp;tr=udp%3A%2F%2Ftracker.coppersurfer.tk%3A6969&amp;tr=udp%3A%2F%2Fexodus.desync.com%3A6969","seeders":0,"leechers":2,"uploader":"Jell181155","files":1,"time":1341282723,"description":"General\n\nComplete name                            : Falco - Naked\nFormat                                   : Matroska\nFile size                                : 103 MiB\nDuration                                 : 3mn 46s\nOverall bit rate                         : 3 805 Kbps\nWriting application                      : mkvmerge v5.6.0\n\nVideo\n\nID                                       : 1\nFormat                                   : AVC\nFormat/Info                              : Advanced Video Codec\nFormat profile                           : &lt;a class=&quot;__cf_email__&quot; href=&quot;/cdn-cgi/l/email-protection&quot; data-cfemail=&quot;92dff3fbfcd2dea1bca2&quot;&gt;[email&amp;#160;protected]&lt;/a&gt;&lt;script cf-hash='f9e31' type=&quot;text/javascript&quot;&gt;\n/* &lt;![CDATA[ */!function(){try{var t=&quot;currentScript&quot;in document?document.currentScript:function(){for(var t=document.getElementsByTagName(&quot;script&quot;),e=t.length;e--;)if(t[e].getAttribute(&quot;cf-hash&quot;))return t[e]}();if(t&amp;&amp;t.previousSibling){var e,r,n,i,c=t.previousSibling,a=c.getAttribute(&quot;data-cfemail&quot;);if(a){for(e=&quot;&quot;,r=parseInt(a.substr(0,2),16),n=2;a.length-n;n+=2)i=parseInt(a.substr(n,2),16)^r,e+=String.fromCharCode(i);e=document.createTextNode(e),c.parentNode.replaceChild(e,c)}}}catch(u){}}();/* ]]&gt; */&lt;/script&gt;\nFormat settings, CABAC                   : Yes\nFormat settings, ReFrames                : 4 frames\nCodec ID                                 : V_MPEG4/ISO/AVC\nDuration                                 : 3mn 46s\nBit rate                                 : 3 089 Kbps\nWidth                                    : 692 pixels\nHeight                                   : 572 pixels\nDisplay aspect ratio                     : 1.290\nFrame rate mode                          : Variable\nFrame rate                               : 25.000 fps\nColor space                              : YUV\nChroma subsampling                       : 4:2:0\nBit depth                                : 8 bits\nScan type                                : Progressive\nBits/(Pixel*Frame)                       : 0.312\nStream size                              : 83.4 MiB (81%)\nWriting library                          : x264 core 120\n\n\nAudio\n                                       \nFormat                                   : AC-3\nDuration                                 : 3mn 46s\nBit rate mode                            : Constant\nBit rate                                 : 640 Kbps\nChannel(s)                               : 2 channels\nChannel positions                        : Front: L R\nSampling rate                            : 48.0 KHz\nBit depth                                : 16 bits\nCompression mode                         : Lossy\nStream size                              : 17.3 MiB (17%)\nLanguage                                 : English\n","torrent":{"xt":"urn:btih:d32205dd66310d0ef994efefba566084a9d9f522","amp;dn":"Falco+-+Naked+%28Jell%29","amp;tr":["udp%3A%2F%2Ftracker.openbittorrent.com%3A80","udp%3A%2F%2Fopen.demonii.com%3A1337","udp%3A%2F%2Ftracker.coppersurfer.tk%3A6969","udp%3A%2F%2Fexodus.desync.com%3A6969"],"infoHash":"d32205dd66310d0ef994efefba566084a9d9f522","infoHashBuffer":{"type":"Buffer","data":[211,34,5,221,102,49,13,14,249,148,239,239,186,86,96,132,169,217,245,34]},"announce":[],"urlList":[]}}